<svg width="300" height="300" viewBox="0 0 300 300" fill="none" xmlns="http://www.w3.org/2000/svg">
<rect width="300" height="300" rx="40" fill="#121214"/>
<path d="M140.693 196.533H103.467C90.5925 196.533 79.6199 191.995 70.5491 182.918C61.472 173.847 56.9334 162.874 56.9334 150C56.9334 137.126 61.472 126.15 70.5491 117.073C79.6199 108.002 90.5925 103.467 103.467 103.467H140.693V122.08H103.467C95.7112 122.08 89.1189 124.794 83.6901 130.223C78.2612 135.652 75.5467 142.244 75.5467 150C75.5467 157.756 78.2612 164.348 83.6901 169.777C89.1189 175.206 95.7112 177.92 103.467 177.92H140.693V196.533ZM112.773 159.307V140.693H187.227V159.307H112.773ZM159.307 196.533V177.92H196.533C204.289 177.92 210.881 175.206 216.31 169.777C221.739 164.348 224.453 157.756 224.453 150C224.453 142.244 221.739 135.652 216.31 130.223C210.881 124.794 204.289 122.08 196.533 122.08H159.307V103.467H196.533C209.408 103.467 220.383 108.002 229.46 117.073C238.531 126.15 243.067 137.126 243.067 150C243.067 162.874 238.531 173.847 229.46 182.918C220.383 191.995 209.408 196.533 196.533 196.533H159.307Z" fill="#8257E5"/>
</svg>